<svg width="26" height="26" viewBox="0 0 26 26" fill="none" xmlns="http://www.w3.org/2000/svg">
<path d="M22.75 10.8333H3.25C2.65417 10.8333 2.16667 11.3208 2.16667 11.9167V17.5392C2.16667 17.7558 2.1775 17.9725 2.19917 18.1892C2.41583 21.5258 4.47417 23.5842 7.81083 23.8008C8.0275 23.8225 8.24417 23.8333 8.46083 23.8333H17.5392C17.7558 23.8333 17.9725 23.8225 18.1892 23.8008C21.5258 23.5842 23.5842 21.5258 23.8008 18.1892C23.8225 17.9725 23.8333 17.7558 23.8333 17.5392V11.9167C23.8333 11.3208 23.3458 10.8333 22.75 10.8333ZM8.66667 17.4958C9.035 18.0375 9.53333 18.4817 10.1075 18.7742C10.5192 18.9692 10.6817 19.4567 10.4758 19.8683C10.335 20.15 10.0425 20.3125 9.75 20.3125C9.63083 20.3125 9.50083 20.28 9.3925 20.2258C8.5475 19.8142 7.8325 19.175 7.32333 18.4058C6.89 17.7558 6.89 16.9108 7.32333 16.2608C7.8325 15.4917 8.5475 14.8525 9.3925 14.4408C9.79333 14.235 10.2808 14.3975 10.4758 14.7983C10.6817 15.21 10.5192 15.6975 10.1075 15.8925C9.53333 16.185 9.035 16.6292 8.66667 17.1708C8.60167 17.2683 8.60167 17.3983 8.66667 17.4958ZM18.9042 18.4058C18.3842 19.175 17.6692 19.8142 16.835 20.2258C16.7158 20.28 16.5967 20.3125 16.4775 20.3125C16.1742 20.3125 15.8925 20.15 15.7517 19.8683C15.5458 19.4567 15.7083 18.9692 16.1092 18.7742C16.6942 18.4817 17.1925 18.0375 17.55 17.4958C17.6258 17.3983 17.6258 17.2683 17.55 17.1708C17.1925 16.6292 16.6942 16.185 16.1092 15.8925C15.7083 15.6975 15.5458 15.21 15.7517 14.7983C15.9467 14.3975 16.4342 14.235 16.835 14.4408C17.6692 14.8525 18.3842 15.4917 18.9042 16.2608C19.3375 16.9108 19.3375 17.7558 18.9042 18.4058Z" fill="#292D32"/>
<path d="M23.8333 8.46082V8.66666C23.8333 9.26249 23.3458 9.74999 22.75 9.74999L3.25 9.76082C2.65417 9.76082 2.16667 9.27332 2.16667 8.67749V8.46082C2.16667 8.24416 2.1775 8.02749 2.19917 7.81082C2.41583 4.47416 4.47417 2.41582 7.81083 2.19916C8.0275 2.17749 8.24417 2.16666 8.46083 2.16666H17.5392C17.7558 2.16666 17.9725 2.17749 18.1892 2.19916C21.5258 2.41582 23.5842 4.47416 23.8008 7.81082C23.8225 8.02749 23.8333 8.24416 23.8333 8.46082Z" fill="#292D32"/>
</svg>
