<svg width="26" height="26" viewBox="0 0 26 26" fill="none" xmlns="http://www.w3.org/2000/svg">
<g clip-path="url(#clip0_301_2)">
<path fill-rule="evenodd" clip-rule="evenodd" d="M23.4 0H2.6C1.17 0 0.013 1.17 0.013 2.6L0 26L5.2 20.8H23.4C24.83 20.8 26 19.63 26 18.2V2.6C26 1.17 24.83 0 23.4 0ZM23.4 18.2H4.121L3.354 18.967L2.6 19.721V2.6H23.4V18.2ZM11.05 15.6H20.8V13H13.65L11.05 15.6ZM16.068 7.969C16.328 7.709 16.328 7.306 16.068 7.046L13.767 4.745C13.507 4.485 13.104 4.485 12.844 4.745L5.2 12.389V15.6H8.411L16.068 7.969Z" fill="#EA3A60"/>
</g>
<defs>
<clipPath id="clip0_301_2">
<rect width="26" height="26" fill="white"/>
</clipPath>
</defs>
</svg>
