<svg width="26" height="26" viewBox="0 0 26 27" fill="none" xmlns="http://www.w3.org/2000/svg">
<path d="M19.7297 11.4031H23.0925C22.2837 6.44614 18.0732 2.66748 12.9998 2.66748C7.9267 2.66748 3.71623 6.44614 2.90738 11.4031H6.2702C7.02957 8.3237 9.75829 6.03755 12.9998 6.03755C16.2414 6.03747 18.9703 8.3237 19.7297 11.4031Z" fill="black"/>
<path d="M23.0926 14.8776H19.7297C18.9704 17.957 16.2415 20.2432 12.9999 20.2432C9.75838 20.2432 7.02957 17.9569 6.27028 14.8776H2.90738C3.71615 19.8345 7.9267 23.6133 12.9998 23.6133C18.0733 23.6132 22.2838 19.8345 23.0926 14.8776Z" fill="black"/>
<path d="M9.45453 13.1404C9.45453 15.141 11.045 16.7687 12.9999 16.7687C14.9549 16.7687 16.5455 15.141 16.5455 13.1404C16.5455 11.1397 14.9549 9.5119 12.9999 9.5119C11.045 9.5119 9.45453 11.1397 9.45453 13.1404Z" fill="black"/>
<path d="M1.06093 7.46547C1.64682 7.46547 2.12187 6.97931 2.12187 6.37972V2.31181H6.09689C6.68278 2.31181 7.15782 1.82566 7.15782 1.22607C7.15782 0.626474 6.68278 0.14032 6.09689 0.14032H1.06093C0.475044 0.14032 0 0.626474 0 1.22607V6.37972C0 6.9794 0.475044 7.46547 1.06093 7.46547Z" fill="black"/>
<path d="M24.9391 0.14032H19.9031C19.3172 0.14032 18.8422 0.626474 18.8422 1.22607C18.8422 1.82566 19.3172 2.31181 19.9031 2.31181H23.8781V6.37972C23.8781 6.97931 24.3532 7.46547 24.9391 7.46547C25.5249 7.46547 26 6.97931 26 6.37972V1.22607C26 0.626474 25.5249 0.14032 24.9391 0.14032Z" fill="black"/>
<path d="M6.09689 23.9688H2.12187V19.9009C2.12187 19.3013 1.64682 18.8152 1.06093 18.8152C0.475044 18.8152 0 19.3013 0 19.9009V25.0546C0 25.6542 0.475044 26.1403 1.06093 26.1403H6.09689C6.68278 26.1403 7.15782 25.6542 7.15782 25.0546C7.15782 24.455 6.68278 23.9688 6.09689 23.9688Z" fill="black"/>
<path d="M24.9391 18.8152C24.3532 18.8152 23.8781 19.3013 23.8781 19.9009V23.9688H19.9031C19.3172 23.9688 18.8422 24.455 18.8422 25.0546C18.8422 25.6542 19.3172 26.1403 19.9031 26.1403H24.9391C25.5249 26.1403 26 25.6542 26 25.0546V19.9009C26 19.3013 25.5249 18.8152 24.9391 18.8152Z" fill="black"/>
</svg>
