<svg width="26" height="26" viewBox="0 0 26 26" fill="none" xmlns="http://www.w3.org/2000/svg">
<path d="M24.921 21.2517C24.921 21.8514 24.4449 22.3405 23.8599 22.3405H2.55936C2.27446 22.3362 2.00287 22.2192 1.804 22.0152C1.60513 21.8111 1.49519 21.5366 1.49823 21.2517V11.6366C1.49823 11.0337 1.97436 10.5479 2.55936 10.5479H23.8599C24.4449 10.5479 24.921 11.0337 24.921 11.6366V21.2517Z" fill="#D94437"/>
<path d="M24.921 13.4095V11.6366C24.923 11.4954 24.897 11.3552 24.8447 11.2241C24.7924 11.0929 24.7148 10.9733 24.6162 10.8722C24.5177 10.7711 24.4001 10.6904 24.2703 10.6347C24.1406 10.5791 24.0011 10.5495 23.8599 10.5479H2.55939C2.4182 10.5495 2.27872 10.5791 2.14894 10.6347C2.01916 10.6904 1.90163 10.7711 1.80308 10.8722C1.70452 10.9733 1.62687 11.0929 1.57457 11.2241C1.52226 11.3552 1.49634 11.4954 1.49827 11.6366V13.4111H24.921V13.4095Z" fill="#CDD6D9"/>
<path d="M2.65851 17.8409C2.65851 18.6787 2.99133 19.4822 3.58376 20.0746C4.17619 20.6671 4.97969 20.9999 5.81751 20.9999C6.65533 20.9999 7.45883 20.6671 8.05126 20.0746C8.64369 19.4822 8.97651 18.6787 8.97651 17.8409C8.97651 17.0031 8.64369 16.1996 8.05126 15.6071C7.45883 15.0147 6.65533 14.6819 5.81751 14.6819C4.97969 14.6819 4.17619 15.0147 3.58376 15.6071C2.99133 16.1996 2.65851 17.0031 2.65851 17.8409Z" fill="#435861"/>
<path d="M5.81753 21.281C4.90556 21.2802 4.03122 20.9174 3.38652 20.2724C2.74181 19.6274 2.37946 18.7529 2.37903 17.8409C2.37903 15.9462 3.92115 14.4024 5.81753 14.4024C6.72923 14.4037 7.60324 14.7663 8.24807 15.4108C8.89289 16.0554 9.25593 16.9292 9.25765 17.8409C9.25636 18.7529 8.89351 19.6271 8.24864 20.272C7.60377 20.9169 6.72951 21.2797 5.81753 21.281ZM5.81753 14.9614C4.2299 14.9614 2.93965 16.2533 2.93965 17.8393C2.93965 19.4253 4.2299 20.7188 5.81753 20.7188C7.40515 20.7188 8.6954 19.4269 8.6954 17.8409C8.6954 16.2549 7.40515 14.9614 5.81753 14.9614Z" fill="#D1CECF"/>
<path d="M5.14478 17.8409C5.14478 17.9292 5.16218 18.0167 5.19599 18.0984C5.22979 18.18 5.27935 18.2541 5.34182 18.3166C5.40429 18.3791 5.47845 18.4286 5.56008 18.4624C5.6417 18.4963 5.72918 18.5137 5.81753 18.5137C5.90587 18.5137 5.99335 18.4963 6.07498 18.4624C6.1566 18.4286 6.23076 18.3791 6.29323 18.3166C6.3557 18.2541 6.40526 18.18 6.43907 18.0984C6.47287 18.0167 6.49028 17.9292 6.49028 17.8409C6.49028 17.7526 6.47287 17.6651 6.43907 17.5835C6.40526 17.5018 6.3557 17.4277 6.29323 17.3652C6.23076 17.3027 6.1566 17.2532 6.07498 17.2194C5.99335 17.1856 5.90587 17.1682 5.81753 17.1682C5.72918 17.1682 5.6417 17.1856 5.56008 17.2194C5.47845 17.2532 5.40429 17.3027 5.34182 17.3652C5.27935 17.4277 5.22979 17.5018 5.19599 17.5835C5.16218 17.6651 5.14478 17.7526 5.14478 17.8409Z" fill="#AAB5BB"/>
<path d="M17.2543 17.8409C17.2543 18.6787 17.5871 19.4822 18.1795 20.0746C18.7719 20.6671 19.5755 20.9999 20.4133 20.9999C21.2511 20.9999 22.0546 20.6671 22.647 20.0746C23.2395 19.4822 23.5723 18.6787 23.5723 17.8409C23.5723 17.0031 23.2395 16.1996 22.647 15.6071C22.0546 15.0147 21.2511 14.6819 20.4133 14.6819C19.5755 14.6819 18.7719 15.0147 18.1795 15.6071C17.5871 16.1996 17.2543 17.0031 17.2543 17.8409Z" fill="#435861"/>
<path d="M20.4149 21.281C19.5029 21.2797 18.6286 20.9169 17.9837 20.272C17.3389 19.6271 16.976 18.7529 16.9747 17.8409C16.9747 15.9462 18.5185 14.4024 20.4149 14.4024C22.3112 14.4024 23.8534 15.9462 23.8534 17.8409C23.8521 18.7526 23.4894 19.6266 22.8449 20.2714C22.2004 20.9163 21.3266 21.2793 20.4149 21.281ZM20.4149 14.9614C18.8272 14.9614 17.537 16.2533 17.537 17.8393C17.537 19.4253 18.8289 20.7172 20.4149 20.7172C22.0009 20.7172 23.2927 19.4253 23.2927 17.8393C23.2927 16.2533 21.9992 14.9614 20.4149 14.9614Z" fill="#D1CECF"/>
<path d="M19.7421 17.8409C19.7421 18.0189 19.8128 18.1896 19.9387 18.3154C20.0646 18.4413 20.2353 18.512 20.4133 18.512C20.5912 18.512 20.7619 18.4413 20.8878 18.3154C21.0137 18.1896 21.0844 18.0189 21.0844 17.8409C21.0844 17.6629 21.0137 17.4922 20.8878 17.3663C20.7619 17.2404 20.5912 17.1697 20.4133 17.1697C20.2353 17.1697 20.0646 17.2404 19.9387 17.3663C19.8128 17.4922 19.7421 17.6629 19.7421 17.8409Z" fill="#AAB5BB"/>
<path d="M10.9703 16.3735H15.4456V17.9254H10.9703V16.3735ZM9.2251 11.3506H17.0852V12.3809H9.2251V11.3506Z" fill="#435861"/>
<path d="M4.78076 4.33386H21.5995V5.88899H4.78076V4.33386Z" fill="#D94437"/>
<path d="M3.75214 4.33386H4.78076V12.1924H3.75214V4.33386ZM21.5995 4.33386H22.6281V12.1924H21.5995V4.33386Z" fill="#CDD6D9"/>
<path d="M10.9704 18.5136H12.0786V19.7389H10.9704V18.5136ZM12.6555 18.5136H13.7621V19.7389H12.6555V18.5136ZM14.339 18.5136H15.4473V19.7389H14.339V18.5136Z" fill="#A52224"/>
</svg>
